<!DOCTYPE svg PUBLIC "-//W3C//DTD SVG 1.1//EN" "http://www.w3.org/Graphics/SVG/1.1/DTD/svg11.dtd">
<!-- Uploaded to: SVG Repo, www.svgrepo.com, Transformed by: SVG Repo Mixer Tools -->
<svg width="150px" height="150px" viewBox="0 0 32 32" xmlns="http://www.w3.org/2000/svg" fill="#000000">
<g id="SVGRepo_bgCarrier" stroke-width="0"/>
<g id="SVGRepo_tracerCarrier" stroke-linecap="round" stroke-linejoin="round"/>
<g id="SVGRepo_iconCarrier"> <g fill="none" fill-rule="evenodd"> <path d="m0 0h32v32h-32z"/> <path d="m15 0c8.2842712 0 15 6.71572875 15 15 0 3.7823596-1.3999424 7.2377452-3.7099407 9.8762702l5.3667949 5.3663705-1.4142135 1.4142135-5.3663705-5.3667949c-2.638525 2.3099983-6.0939106 3.7099407-9.8762702 3.7099407-8.28427125 0-15-6.7157288-15-15 0-8.28427125 6.71572875-15 15-15zm0 2c-7.17970175 0-13 5.82029825-13 13 0 7.1797017 5.82029825 13 13 13 7.1797017 0 13-5.8202983 13-13 0-7.17970175-5.8202983-13-13-13zm6 12v2h-12v-2z" fill="#ffffff" fill-rule="nonzero"/> </g> </g>
</svg>